<svg xmlns="http://www.w3.org/2000/svg" version="1.1" id="Layer_1" x="0px" y="0px" width="21.285px" height="21.355px" viewBox="0 0 21.285 21.355" enable-background="new 0 0 21.285 21.355" xml:space="preserve"><path fill="#047EB7" d="M9 2.5c3.584 0 6.5 2.916 6.5 6.5s-2.916 6.5-6.5 6.5S2.5 12.584 2.5 9 5.416 2.5 9 2.5M9 0C4.029 0 0 4.029 0 9s4.029 9 9 9 9-4.029 9-9S13.971 0 9 0L9 0z"/><path fill="#047EB7" d="M15.206 13.597c-0.568 0.556-1.182 1.064-1.821 1.537l6.222 6.222 1.679-1.679L15.206 13.597z"/></svg>