<svg xmlns="http://www.w3.org/2000/svg" version="1.1" id="Layer_1" x="0px" y="0px" width="28px" height="28px" viewBox="0 0 28 28" enable-background="new 0 0 28 28" xml:space="preserve"><path fill="#36974B" d="M14 2c6.617 0 12 5.383 12 12s-5.383 12-12 12C7.383 26 2 20.617 2 14S7.383 2 14 2M14 0C6.268 0 0 6.268 0 14s6.268 14 14 14c7.732 0 14-6.269 14-14S21.732 0 14 0L14 0z"/><rect x="15.028" y="8.082" transform="matrix(0.7074 0.7068 -0.7068 0.7074 14.8884 -6.9258)" fill="#36974B" width="1.564" height="12.876"/><path fill="#36974B" d="M11.811 19.802l-1.283-1.282 0.088-0.089 9.193-9.193 1.282 1.283 -0.088 0.088L11.811 19.802zM10.881 18.52l0.93 0.929 8.927-8.927 -0.929-0.93L10.881 18.52z"/><rect x="9.392" y="13.788" transform="matrix(0.7071 -0.7071 0.7071 0.7071 -8.9588 12.1391)" fill="#36974B" width="1.563" height="6.192"/><path fill="#36974B" d="M11.811 19.802l-0.088-0.088 -4.467-4.467 1.283-1.283 4.555 4.556L11.811 19.802zM7.608 15.248l4.202 4.201 0.929-0.929 -4.202-4.202L7.608 15.248z"/></svg>